<svg height="483pt" viewBox="-1 0 483 483.93432" width="483pt" xmlns="http://www.w3.org/2000/svg"><path d="m223.1875 397.921875c-1.441406-.402344-2.800781-.722656-4.160156-1.203125-2.40625-.710938-4.757813-1.59375-7.039063-2.640625-.800781-.316406-1.601562-.636719-2.402343-1.039063-1.839844-.878906-3.679688-1.839843-5.4375-2.878906-1.605469-.921875-3.15625-1.933594-4.640626-3.039062-1.667968-1.109375-3.269531-2.3125-4.800781-3.601563-.253906-.167969-.496093-.355469-.71875-.558593-1.519531-1.28125-2.960937-2.640626-4.402343-4.082032-1.4375-1.4375-2.796876-2.878906-4.078126-4.398437-.207031-.226563-.394531-.464844-.5625-.71875-1.285156-1.535157-2.488281-3.136719-3.597656-4.800781-1.105468-1.46875-2.097656-3.019532-2.960937-4.640626-1.09375-1.753906-2.082031-3.570312-2.960938-5.441406-.398437-.800781-.71875-1.597656-1.039062-2.398437-1.046875-2.28125-1.925781-4.632813-2.640625-7.039063-.480469-1.363281-.800782-2.722656-1.199219-4.160156-.480469-2.082031-.960937-4.160156-1.28125-6.320312-.320313-2.160157-.558594-4.5625-.71875-6.960938l-76 76h67.921875v67.921875l76-76c-2.402344-.160156-4.722656-.402344-6.960938-.722656-2.160156-.320313-4.242187-.800781-6.320312-1.277344zm0 0" fill="#9bc9ff"/><path d="m310.386719 345.28125c-.398438 1.4375-.71875 2.796875-1.199219 4.160156-.710938 2.40625-1.59375 4.757813-2.640625 7.039063-.320313.800781-.640625 1.597656-1.039063 2.398437-.878906 1.839844-1.839843 3.679688-2.878906 5.441406-.921875 1.605469-1.9375 3.15625-3.042968 4.640626-1.109376 1.664062-2.308594 3.265624-3.597657 4.800781-.167969.253906-.355469.492187-.5625.71875-1.277343 1.519531-2.636719 2.960937-4.078125 4.398437-1.441406 1.441406-2.878906 2.800782-4.402344 4.082032-.222656.203124-.464843.390624-.71875.558593-1.53125 1.289063-3.132812 2.492188-4.800781 3.601563-1.484375 1.105468-3.03125 2.117187-4.636719 3.039062-1.761718 1.039063-3.601562 2-5.441406 2.878906-.800781.402344-1.601562.722657-2.402344 1.039063-2.28125 1.046875-4.632812 1.929687-7.039062 2.640625-1.359375.480469-2.71875.800781-4.160156 1.203125-2.078125.476563-4.160156.957031-6.320313 1.277344-2.160156.320312-4.558593.5625-6.957031.722656l76 76v-67.921875h67.917969l-76-76c-.160157 2.398438-.398438 4.71875-.71875 6.960938-.320313 2.160156-.800781 4.238281-1.28125 6.320312zm0 0" fill="#9bc9ff"/><path d="m240.46875 256c-39.765625 0-72 32.234375-72 72 0 1.359375 0 2.71875.078125 4 .160156 2.398438.398437 4.71875.71875 6.960938.320313 2.160156.800781 4.238281 1.28125 6.320312.398437 1.4375.71875 2.796875 1.199219 4.160156.714844 2.40625 1.59375 4.757813 2.640625 7.039063.320312.800781.640625 1.597656 1.039062 2.398437.878907 1.871094 1.867188 3.6875 2.960938 5.441406.863281 1.621094 1.855469 3.171876 2.960937 4.640626 1.109375 1.664062 2.3125 3.265624 3.597656 4.800781.167969.253906.355469.492187.5625.71875 1.28125 1.519531 2.640626 2.960937 4.078126 4.398437 1.441406 1.441406 2.882812 2.800782 4.402343 4.082032.222657.203124.464844.390624.71875.558593 1.53125 1.289063 3.132813 2.492188 4.800781 3.601563 1.484376 1.105468 3.035157 2.117187 4.640626 3.039062 1.757812 1.039063 3.597656 2 5.4375 2.878906.800781.402344 1.601562.722657 2.402343 1.039063 2.28125 1.046875 4.632813 1.929687 7.039063 2.640625 1.359375.480469 2.71875.800781 4.160156 1.203125 2.078125.476563 4.160156.957031 6.320312 1.277344 2.160157.320312 4.558594.5625 6.960938.722656 1.277344.078125 2.636719.078125 4 .078125 1.359375 0 2.71875 0 4-.078125 2.398438-.160156 4.71875-.402344 6.957031-.722656 2.160157-.320313 4.242188-.800781 6.320313-1.277344 1.441406-.402344 2.800781-.722656 4.160156-1.203125 2.40625-.710938 4.757812-1.59375 7.039062-2.640625.800782-.316406 1.601563-.636719 2.402344-1.039063 1.839844-.878906 3.679688-1.839843 5.441406-2.878906 1.605469-.921875 3.152344-1.933594 4.636719-3.039062 1.667969-1.109375 3.269531-2.3125 4.800781-3.601563.253907-.167969.496094-.355469.71875-.558593 1.523438-1.28125 2.960938-2.640626 4.402344-4.082032 1.441406-1.4375 2.800782-2.878906 4.078125-4.398437.207031-.226563.394531-.464844.5625-.71875 1.289063-1.535157 2.488281-3.136719 3.597657-4.800781 1.105468-1.484376 2.121093-3.035157 3.042968-4.640626 1.039063-1.761718 2-3.601562 2.878906-5.441406.398438-.800781.71875-1.597656 1.039063-2.398437 1.046875-2.28125 1.929687-4.632813 2.640625-7.039063.480469-1.363281.800781-2.722656 1.199219-4.160156.480469-2.082031.960937-4.160156 1.28125-6.320312.320312-2.160157.558593-4.5625.71875-6.960938.082031-1.28125.082031-2.640625.082031-4 0-39.765625-32.238281-72-72-72zm-40 72v1.816406c.109375 1.597656.261719 3.136719.453125 4.449219-.191406-1.3125-.34375-2.859375-.453125-4.449219 0-.425781 0-1.121094 0-1.816406.023438-22.082031 17.917969-39.972656 40-40-22.082031.027344-39.976562 17.917969-40 40zm0 0" fill="#9bc9ff"/><g fill="#1e81ce"><path d="m472.46875 0h-464c-4.417969 0-8 3.582031-8 8v320c0 4.417969 3.582031 8 8 8h144.796875l-66.398437 66.34375c-2.289063 2.292969-2.972657 5.738281-1.730469 8.730469 1.246093 2.988281 4.171875 4.933593 7.410156 4.925781h59.921875v59.921875c0 3.234375 1.949219 6.148437 4.9375 7.386719 2.988281 1.238281 6.429688.554687 8.71875-1.734375l73.597656-73.597657.746094.023438h.75l73.601562 73.601562c2.289063 2.28125 5.734376 2.960938 8.722657 1.71875 2.984375-1.242187 4.929687-4.164062 4.925781-7.398437v-59.921875h59.917969c3.234375 0 6.152343-1.949219 7.390625-4.9375 1.238281-2.988281.554687-6.429688-1.734375-8.71875l-66.375-66.34375h144.800781c4.417969 0 8-3.582031 8-8v-320c0-4.417969-3.582031-8-8-8zm-168.058594 331.457031c-.152344 2.199219-.367187 4.320313-.65625 6.335938-.285156 1.886719-.710937 3.710937-1.070312 5.335937l-.34375 1.261719c-.214844.800781-.417969 1.601563-.800782 2.753906-.648437 2.1875-1.449218 4.324219-2.398437 6.398438-.234375.570312-.449219 1.136719-.800781 1.855469-.800782 1.601562-1.601563 3.265624-2.542969 4.800781-.851563 1.484375-1.789063 2.917969-2.808594 4.289062-.945312 1.417969-1.972656 2.78125-3.074219 4.078125-.199218.234375-.386718.476563-.558593.730469-1.128907 1.335937-2.335938 2.613281-3.625 3.902344-1.289063 1.289062-2.550781 2.480469-3.871094 3.617187-.261719.171875-.515625.355469-.753906.558594-1.449219 1.210938-2.964844 2.34375-4.535157 3.394531-1.21875.894531-2.488281 1.71875-3.800781 2.46875-1.558593.921875-3.199219 1.769531-4.964843 2.617188-.578126.289062-1.144532.503906-2.183594.945312-2.050782.929688-4.160156 1.710938-6.320313 2.335938-.800781.289062-1.601562.488281-2.402343.703125l-1.054688.289062c-1.832031.414063-3.65625.800782-5.503906 1.117188-2.039063.296875-4.160156.507812-6.34375.65625-1.128906.097656-2.296875.097656-3.527344.097656-1.234375 0-2.402344 0-3.457031-.054688-2.199219-.152343-4.320313-.371093-6.335938-.65625-1.886719-.289062-3.710937-.714843-5.335937-1.074218l-1.265625-.34375c-.800781-.214844-1.597657-.414063-2.75-.800782-2.1875-.644531-4.328125-1.445312-6.402344-2.398437-.566406-.230469-1.132813-.449219-1.855469-.800781-1.597656-.800782-3.261718-1.597656-4.800781-2.519532-1.492187-.859374-2.933594-1.804687-4.320313-2.832031-1.410156-.945312-2.769531-1.96875-4.070312-3.0625-.234375-.203125-.480469-.394531-.734375-.570312-1.335937-1.125-2.617187-2.335938-3.90625-3.621094-1.289063-1.289063-2.480469-2.554687-3.613281-3.875-.171875-.257813-.355469-.503906-.554688-.742187-1.21875-1.453126-2.355468-2.972657-3.40625-4.550782-.941406-1.269531-1.78125-2.605468-2.519531-4-.949219-1.527344-1.804687-3.109375-2.5625-4.738281-.285156-.574219-.503906-1.144531-.933594-2.183594-.933593-2.046875-1.71875-4.160156-2.34375-6.320312-.289062-.800781-.488281-1.597657-.707031-2.398438l-.285156-1.058593c-.417969-1.832032-.839844-3.65625-1.121094-5.503907-.296875-2.039062-.503906-4.160156-.65625-6.34375-.0625-1.152343-.0625-2.367187-.0625-3.550781 0-35.347656 28.652344-64 64-64 35.34375 0 64 28.652344 64 64 0 1.191406 0 2.398438-.058594 3.457031zm-135.941406 125.152344v-48.609375c0-4.417969-3.582031-8-8-8h-48.609375l51.320313-51.320312c.085937.320312.167968.609374.253906.914062.089844.300781.128906.496094.203125.726562.152343.527344.300781 1.015626.445312 1.414063.78125 2.660156 1.75 5.257813 2.90625 7.777344.390625.992187.800781 1.976562 1.222657 2.816406.945312 2.011719 2.011718 3.960937 3.199218 5.839844.957032 1.832031 2.066406 3.582031 3.3125 5.230469 1.214844 1.816406 2.519532 3.566406 3.914063 5.25.375.511718.796875.992187.796875.992187 1.433594 1.695313 2.945312 3.304687 4.539062 4.886719 1.589844 1.585937 3.199219 3.121094 4.40625 4.089844.460938.445312.953125.855468 1.472656 1.230468 1.535157 1.285156 3.136719 2.488282 4.800782 3.601563 1.753906 1.304687 3.582031 2.507812 5.480468 3.597656 1.957032 1.160156 4 2.234375 5.910157 3.136719.851562.429687 1.722656.808594 2.617187 1.144531 2.507813 1.164063 5.101563 2.144531 7.75 2.9375 1.136719.398437 2.265625.710937 3.425782 1.023437zm152-56.609375c-4.417969 0-8 3.582031-8 8v48.609375l-51.320312-51.320313.910156-.257812c.25-.0625.496094-.128906.730468-.199219.527344-.152343 1.015626-.304687 1.414063-.449219 2.65625-.78125 5.257813-1.75 7.777344-2.902343.992187-.390625 1.976562-.800781 2.816406-1.222657 2.046875-.976562 4.09375-2.050781 6.109375-3.203124 1.714844-.980469 3.371094-2.0625 4.960938-3.238282 1.820312-1.210937 3.570312-2.519531 5.246093-3.921875.347657-.246093.679688-.511719.992188-.796875 1.699219-1.433594 3.304687-2.945312 4.890625-4.539062 1.582031-1.589844 3.117187-3.199219 4.085937-4.40625.449219-.464844.863281-.957032 1.242188-1.480469 1.28125-1.53125 2.476562-3.132813 3.582031-4.800781 1.3125-1.753906 2.515625-3.589844 3.609375-5.488282 1.160156-1.957031 2.230469-4 3.136719-5.910156.496094-.984375.902344-1.96875 1.152344-2.617187 1.160156-2.511719 2.136718-5.101563 2.925781-7.75.402343-1.136719.710937-2.265625 1.023437-3.425781l51.320313 51.320312zm144-80h-144.402344v-.070312c-.0625-.65625-.207031-1.289063-.289062-1.9375-.238282-1.9375-.503906-3.871094-.878906-5.761719-.199219-1-.488282-1.957031-.71875-2.933594-.367188-1.511719-.710938-3.03125-1.160157-4.503906-.328125-1.066407-.71875-2.082031-1.089843-3.121094-.46875-1.351563-.933594-2.710937-1.480469-4-.429688-1.054687-.933594-2.078125-1.40625-3.113281-.582031-1.246094-1.152344-2.496094-1.792969-3.703125-.542969-1.03125-1.136719-2.015625-1.71875-3.015625-.679688-1.160156-1.351562-2.320313-2.089844-3.441406-.636718-.972657-1.316406-1.917969-2-2.871094-.796875-1.070313-1.550781-2.144532-2.398437-3.199219-.847657-1.054687-1.488281-1.808594-2.253907-2.6875-.867187-1-1.746093-1.976563-2.65625-2.929687-.914062-.949219-1.601562-1.664063-2.488281-2.472657-.890625-.804687-1.9375-1.796875-2.9375-2.664062-.878906-.796875-1.769531-1.511719-2.679687-2.238281-1.039063-.800782-2.113282-1.601563-3.199219-2.398438-.9375-.671875-1.890625-1.335938-2.855469-1.976562-1.128906-.730469-2.289062-1.417969-3.457031-2.097657-.992187-.574219-1.984375-1.160156-3.007813-1.695312-1.214843-.640625-2.464843-1.214844-3.71875-1.792969-1.027343-.480469-2.050781-.96875-3.097656-1.398438-1.320312-.542968-2.679687-1.007812-4-1.480468-1.039062-.359375-2.0625-.753906-3.128906-1.070313-1.4375-.433593-2.925781-.800781-4.398438-1.136719-1.015624-.242187-2.015624-.527343-3.050781-.730468-1.664062-.335938-3.367187-.550782-5.070312-.796875-.878907-.121094-1.742188-.296875-2.632813-.386719-2.605468-.253906-5.253906-.398438-7.925781-.398438s-5.320313.144532-7.929687.398438c-.886719.089844-1.75.265625-2.632813.386719-1.703125.222656-3.40625.4375-5.070313.796875-1.03125.203125-2.03125.488281-3.046874.730468-1.472657.359376-2.960938.703126-4.402344 1.136719-1.0625.316407-2.085938.710938-3.128906 1.070313-1.351563.472656-2.710938.9375-4 1.480468-1.046876.429688-2.070313.917969-3.09375 1.398438-1.257813.578125-2.503907 1.152344-3.71875 1.792969-1.027344.535156-2.019532 1.121093-3.011719 1.695312-1.167969.679688-2.324219 1.367188-3.453125 2.097657-.96875.640624-1.921875 1.304687-2.855469 1.976562-1.089844.796875-2.160156 1.597656-3.203125 2.398438-.910156.726562-1.796875 1.472656-2.679688 2.238281-1 .867187-1.984374 1.753906-2.933593 2.664062-.953125.914063-1.671875 1.601563-2.488281 2.472657-.816407.875-1.792969 1.929687-2.65625 2.929687-.800782.878906-1.519532 1.765625-2.257813 2.6875-.734375.917969-1.597656 2.105469-2.398437 3.199219-.679688.953125-1.359376 1.898437-2 2.871094-.734376 1.121093-1.410157 2.28125-2.089844 3.441406-.582032 1-1.175782 1.984375-1.71875 3.015625-.640625 1.207031-1.207032 2.457031-1.792969 3.703125-.472656 1.035156-.976563 2.058594-1.40625 3.113281-.542969 1.320313-1.007813 2.679687-1.480469 4-.367187 1.039063-.800781 2.054687-1.089844 3.121094-.445312 1.472656-.796874 2.992187-1.15625 4.503906-.234374.976563-.523437 1.933594-.722656 2.933594-.375 1.890625-.640625 3.824219-.878906 5.761719-.082031.648437-.222656 1.28125-.289062 1.9375v.070312h-144.429688v-304h448zm0 0"/><path d="m240.46875 280c-12.824219.046875-25.097656 5.203125-34.105469 14.328125-9.007812 9.121094-14.007812 21.460937-13.894531 34.28125v1.757813c.117188 1.800781.292969 3.535156.503906 5.023437.558594 3.941406 3.929688 6.871094 7.910156 6.875.382813 0 .765626-.027344 1.144532-.082031 4.375-.621094 7.414062-4.671875 6.792968-9.046875-.167968-1.144531-.296874-2.488281-.378906-3.671875v-1.464844c0-17.671875 14.328125-32 32-32 4.421875 0 8-3.582031 8-8s-3.578125-8-8-8zm0 0"/><path d="m384.46875 96h-288c-4.417969 0-8-3.582031-8-8s3.582031-8 8-8h288c4.417969 0 8 3.582031 8 8s-3.582031 8-8 8zm0 0"/><path d="m384.46875 144h-288c-4.417969 0-8-3.582031-8-8s3.582031-8 8-8h288c4.417969 0 8 3.582031 8 8s-3.582031 8-8 8zm0 0"/><path d="m384.46875 192h-288c-4.417969 0-8-3.582031-8-8s3.582031-8 8-8h288c4.417969 0 8 3.582031 8 8s-3.582031 8-8 8zm0 0"/></g></svg>