<svg height="495pt" viewBox="-31 0 495 495.2" width="495pt" xmlns="http://www.w3.org/2000/svg"><g fill="#9bc9ff"><path d="m298.964844 332.136719h.09375c16.570312 5.144531 32.308594 12.664062 46.722656 22.320312 24.820312-30.074219 38.375-67.863281 38.320312-106.855469h-72c.164063 28.699219-4.269531 57.238282-13.136718 84.535157zm0 0"/><path d="m298.964844 163.0625c8.867187 27.296875 13.300781 55.839844 13.136718 84.539062h72c.058594-39.003906-13.492187-76.804687-38.320312-106.882812-14.414062 9.660156-30.152344 17.175781-46.722656 22.320312zm0 0"/><path d="m133.140625 332.160156h.09375c-8.867187-27.304687-13.304687-55.851562-13.132813-84.558594h-72c-.0625 39 13.488282 76.800782 38.320313 106.878907 14.410156-9.65625 30.148437-17.175781 46.71875-22.320313zm0 0"/><path d="m133.234375 163.0625h-.09375c-16.570313-5.144531-32.308594-12.660156-46.71875-22.320312-24.824219 30.074218-38.378906 67.863281-38.320313 106.859374h72c-.167968-28.699218 4.265626-57.242187 13.132813-84.539062zm0 0"/><path d="m312.101562 247.601562c.164063-28.699218-4.269531-57.242187-13.136718-84.539062-26.796875 8.484375-54.757813 12.710938-82.863282 12.539062v72zm0 0"/><path d="m216.101562 175.601562c-28.109374.171876-56.070312-4.054687-82.867187-12.539062-8.867187 27.296875-13.300781 55.839844-13.132813 84.539062h96zm0 0"/><path d="m216.101562 247.601562h-96c-.167968 28.699219 4.265626 57.238282 13.132813 84.535157 26.796875-8.480469 54.757813-12.710938 82.867187-12.535157zm0 0"/><path d="m216.101562 319.601562c28.105469-.175781 56.066407 4.054688 82.863282 12.535157 8.867187-27.296875 13.300781-55.835938 13.136718-84.535157h-96zm0 0"/><path d="m298.964844 332.136719c-16.648438 49.863281-47.480469 83.464843-82.863282 83.464843 50.191407.042969 97.769532-22.378906 129.679688-61.121093-14.414062-9.65625-30.152344-17.175781-46.722656-22.320313zm0 0"/><path d="m133.234375 332.136719h-.09375c-16.570313 5.144531-32.308594 12.664062-46.71875 22.320312 31.902344 38.75 79.480469 61.183594 129.679687 61.144531-35.386718 0-66.21875-33.601562-82.867187-83.464843zm0 0"/><path d="m133.234375 332.136719c16.648437 49.863281 47.480469 83.464843 82.867187 83.464843v-96c-28.109374-.175781-56.070312 4.054688-82.867187 12.535157zm0 0"/><path d="m298.964844 332.136719c-26.796875-8.480469-54.757813-12.710938-82.863282-12.535157v96c35.382813 0 66.214844-33.601562 82.863282-83.464843zm0 0"/><path d="m298.964844 163.0625h.09375c16.570312-5.144531 32.308594-12.660156 46.722656-22.320312-31.90625-38.75-79.484375-61.183594-129.679688-61.140626 35.382813 0 66.214844 33.597657 82.863282 83.460938zm0 0"/><path d="m133.234375 163.0625c16.648437-49.863281 47.480469-83.460938 82.867187-83.460938-50.195312-.046874-97.769531 22.375-129.679687 61.117188 14.410156 9.660156 30.148437 17.175781 46.71875 22.320312zm0 0"/><path d="m133.234375 163.0625c26.796875 8.484375 54.757813 12.710938 82.867187 12.539062v-96c-35.386718 0-66.21875 33.597657-82.867187 83.460938zm0 0"/><path d="m298.964844 163.0625c-16.648438-49.863281-47.480469-83.460938-82.863282-83.460938v96c28.105469.171876 56.066407-4.054687 82.863282-12.539062zm0 0"/></g><path d="m392.101562 247.601562c-.023437-51.785156-22.835937-100.929687-62.371093-134.375-39.535157-33.441406-91.785157-47.789062-142.855469-39.226562-5.734375.960938-11.390625 2.238281-16.96875 3.753906-1.597656.429688-3.199219.902344-4.796875 1.375-33.238281 10.035156-62.761719 29.683594-84.847656 56.472656-47.808594 58.082032-53.4375 140.117188-14.015625 204.1875 39.417968 64.066407 115.1875 96.019532 188.582031 79.53125 4.128906-.929687 8.191406-2.054687 12.230469-3.273437 33.246094-10.023437 62.78125-29.664063 84.882812-56.445313 25.945313-31.5625 40.140625-71.144531 40.160156-112zm-48.289062 96.207032c-10.964844-6.6875-22.585938-12.234375-34.679688-16.542969 6.699219-23.320313 10.335938-47.410156 10.816407-71.664063h55.796875c-1.609375 31.925782-12.730469 62.644532-31.933594 88.207032zm-10.671875 12.886718c-3.289063 3.527344-6.738281 6.855469-10.296875 10.039063-.929688.800781-1.886719 1.601563-2.832031 2.449219-3.136719 2.667968-6.359375 5.21875-9.671875 7.65625-.6875.503906-1.351563 1.054687-2.046875 1.542968-3.679688 2.601563-7.503907 4.976563-11.386719 7.25-1.398438.800782-2.8125 1.597657-4.246094 2.398438-3.335937 1.816406-6.734375 3.527344-10.191406 5.105469-1.601562.710937-3.144531 1.382812-4.738281 2.046875-2.261719.945312-4.582031 1.769531-6.894531 2.609375 14.753906-16.003907 26.074218-34.859375 33.265624-55.402344 10.25 3.660156 20.132813 8.277344 29.519532 13.785156-.175782.167969-.320313.351563-.480469.519531zm-183.359375 36.457032c-3.484375-1.601563-6.90625-3.316406-10.273438-5.144532-1.40625-.769531-2.804687-1.566406-4.191406-2.398437-3.894531-2.28125-7.726562-4.664063-11.425781-7.273437-.671875-.480469-1.3125-1.007813-1.976563-1.488282-3.34375-2.4375-6.59375-5.011718-9.757812-7.726562-.929688-.800782-1.863281-1.601563-2.777344-2.402344-3.574218-3.199219-7.039062-6.542969-10.34375-10.078125-.144531-.160156-.289062-.335937-.4375-.496094 9.378906-5.5 19.257813-10.105469 29.503906-13.753906 7.1875 20.539063 18.5 39.390625 33.246094 55.394531-2.328125-.847656-4.65625-1.671875-6.945312-2.625-1.503906-.648437-3.101563-1.3125-4.621094-2.007812zm-37.527344-137.550782c.476563 24.253907 4.113282 48.34375 10.8125 71.664063-12.09375 4.3125-23.714844 9.855469-34.679687 16.542969-19.199219-25.5625-30.320313-56.28125-31.933594-88.207032zm95.847656-16h-79.730468c.484375-22.601562 3.84375-45.046874 9.992187-66.800781 22.710938 6.429688 46.140625 9.957031 69.738281 10.503907zm0 16v56.527344c-23.574218.488282-46.996093 3.941406-69.707031 10.277344-6.195312-21.746094-9.585937-44.199219-10.085937-66.804688zm85.703126 66.8125c-22.710938-6.339843-46.128907-9.796874-69.703126-10.277343v-56.535157h79.789063c-.5 22.609376-3.890625 45.0625-10.085937 66.8125zm-85.703126 5.699219v78.75c-26.832031-4.421875-50.160156-30.910156-64.609374-69.269531 21.0625-5.816406 42.761718-9 64.609374-9.480469zm16 0c21.84375.480469 43.542969 3.664063 64.605469 9.480469-14.445312 38.359375-37.773437 64.847656-64.605469 69.269531zm119.710938-176.722656c19.210938 25.5625 30.355469 56.277344 32 88.210937h-55.992188c-.472656-24.25-4.078124-48.332031-10.71875-71.65625 12.105469-4.3125 23.738282-9.859374 34.710938-16.554687zm-64.558594-50.789063 2.125.925782c4.335938 1.9375 8.59375 4.058594 12.738282 6.402344.640624.359374 1.269531.734374 1.910156 1.101562 4.175781 2.402344 8.257812 4.984375 12.207031 7.769531.503906.351563.992187.734375 1.488281 1.09375 4 2.914063 8 5.992188 11.753906 9.296875.28125.25.542969.511719.800782.761719 3.925781 3.488281 7.71875 7.152344 11.328125 11.046875-9.378907 5.519531-19.257813 10.144531-29.503907 13.808594-7.160156-20.542969-18.472656-39.394532-33.226562-55.382813 2.824219 1.023438 5.632812 1.988281 8.378906 3.175781zm-55.152344-12.265624c26.847657 4.425781 50.253907 30.816406 64.695313 69.25-21.089844 5.832031-42.820313 9.023437-64.695313 9.503906zm69.734376 84.464843c6.148437 21.753907 9.507812 44.199219 9.992187 66.800781h-79.726563v-56.296874c23.59375-.546876 47.023438-4.078126 69.734376-10.503907zm-85.734376-84.464843v78.753906c-21.875-.480469-43.609374-3.675782-64.699218-9.503906 14.441406-38.433594 37.851562-64.824219 64.699218-69.25zm-109.472656 50.585937c3.574219-3.859375 7.335938-7.496094 11.199219-10.953125.296875-.265625.582031-.554688.886719-.800781 3.753906-3.289063 7.671875-6.351563 11.6875-9.257813.523437-.375 1.027344-.796875 1.554687-1.132812 3.933594-2.769532 7.988281-5.347656 12.160157-7.738282.648437-.375 1.292968-.800781 1.949218-1.128906 4.140625-2.3125 8.375-4.433594 12.707032-6.359375l2.152343-.941406c2.742188-1.175781 5.597657-2.144531 8.382813-3.203125-14.75 15.996094-26.054688 34.851562-33.207032 55.402344-10.269531-3.660156-20.167968-8.289063-29.5625-13.816406zm-10.242187 12.46875c10.972656 6.695313 22.605469 12.242187 34.714843 16.554687-6.644531 23.324219-10.246093 47.40625-10.722656 71.65625h-55.949218c1.628906-31.929687 12.757812-62.648437 31.957031-88.210937zm0 0" fill="#1e81ce"/><path d="m416.101562 247.601562c-.125 110.402344-89.597656 199.875-200 200h-108.691406l20.28125-20.289062-11.3125-11.3125-39.589844 39.601562 39.589844 39.597657 11.3125-11.3125-20.28125-20.285157h108.691406c119.238282-.132812 215.867188-96.761718 216-216zm0 0" fill="#1e81ce"/><path d="m299.820312 0-11.3125 11.3125 20.28125 20.289062h-92.6875c-119.242187.128907-215.871093 96.757813-216 216h16c.121094-110.40625 89.59375-199.878906 200-200h92.6875l-20.28125 20.285157 11.3125 11.3125 39.589844-39.597657zm0 0" fill="#1e81ce"/></svg>