<svg height="479pt" viewBox="-47 0 479 479.99634" width="479pt" xmlns="http://www.w3.org/2000/svg"><path d="m192.5 472c17.671875 0 32-14.328125 32-32h-64c0 17.671875 14.324219 32 32 32zm0 0" fill="#9bc9ff"/><path d="m192.5 184v160h48c8.824219-.027344 15.972656-7.175781 16-16v-17.839844c-.128906-9.605468 4.082031-18.753906 11.453125-24.914062 28.410156-22.886719 44.8125-57.492188 44.546875-93.972656-.203125-66.277344-54.089844-119.839844-120.367188-119.636719-66.273437.199219-119.835937 54.089843-119.632812 120.363281-.050781 35.949219 16.082031 70.011719 43.925781 92.753906 7.503907 5.929688 11.933594 14.921875 12.074219 24.484375v18.761719c.023438 8.824219 7.171875 15.972656 16 16h48zm0-48" fill="#9bc9ff"/><g fill="#1e81ce"><path d="m192.5 48c-4.421875 0-8-3.582031-8-8v-32c0-4.417969 3.578125-8 8-8 4.417969 0 8 3.582031 8 8v32c0 4.417969-3.582031 8-8 8zm0 0"/><path d="m116.5 68.359375c-2.863281.003906-5.507812-1.523437-6.9375-4l-16-27.703125c-1.453125-2.476562-1.464844-5.542969-.035156-8.03125 1.429687-2.488281 4.082031-4.019531 6.953125-4.015625 2.871093.007813 5.519531 1.550781 6.9375 4.046875l16 27.703125c1.429687 2.472656 1.429687 5.523437.003906 7.996094-1.429687 2.476562-4.066406 4-6.921875 4.003906zm0 0"/><path d="m60.859375 124c-1.40625.003906-2.785156-.367188-4-1.070312l-27.722656-16c-3.792969-2.226563-5.078125-7.09375-2.878907-10.902344 2.195313-3.808594 7.058594-5.128906 10.878907-2.957032l27.722656 16c3.132813 1.8125 4.664063 5.503907 3.726563 9-.9375 3.496094-4.105469 5.929688-7.726563 5.929688zm0 0"/><path d="m40.5 200h-32c-4.421875 0-8-3.582031-8-8s3.578125-8 8-8h32c4.417969 0 8 3.582031 8 8s-3.582031 8-8 8zm0 0"/><path d="m33.152344 292c-3.617188 0-6.789063-2.433594-7.726563-5.929688-.9375-3.496093.59375-7.1875 3.726563-9l27.722656-16c2.476562-1.449218 5.539062-1.464843 8.03125-.035156 2.488281 1.429688 4.019531 4.085938 4.015625 6.957032-.007813 2.871093-1.550781 5.515624-4.046875 6.9375l-27.722656 16c-1.214844.703124-2.59375 1.074218-4 1.070312zm0 0"/><path d="m351.84375 292c-1.40625.003906-2.785156-.367188-4-1.070312l-27.722656-16c-2.496094-1.421876-4.039063-4.066407-4.042969-6.9375-.007813-2.871094 1.523437-5.527344 4.011719-6.957032 2.492187-1.429687 5.554687-1.414062 8.03125.035156l27.722656 16c3.132812 1.8125 4.664062 5.503907 3.726562 9-.9375 3.496094-4.109374 5.929688-7.726562 5.929688zm0 0"/><path d="m376.5 200h-32c-4.421875 0-8-3.582031-8-8s3.578125-8 8-8h32c4.417969 0 8 3.582031 8 8s-3.582031 8-8 8zm0 0"/><path d="m324.136719 124c-3.621094 0-6.789063-2.433594-7.726563-5.929688-.9375-3.496093.59375-7.1875 3.726563-9l27.722656-16c3.820313-2.171874 8.683594-.851562 10.882813 2.957032 2.195312 3.808594.910156 8.675781-2.882813 10.902344l-27.722656 16c-1.214844.703124-2.59375 1.074218-4 1.070312zm0 0"/><path d="m268.5 68.359375c-2.859375-.003906-5.496094-1.527344-6.925781-4.003906-1.425781-2.472657-1.425781-5.523438.003906-7.996094l16-27.703125c1.417969-2.496094 4.066406-4.039062 6.9375-4.046875 2.871094-.003906 5.523437 1.527344 6.953125 4.015625s1.417969 5.554688-.035156 8.03125l-16 27.703125c-1.429688 2.476563-4.074219 4.003906-6.933594 4zm0 0"/><path d="m192.5 160c-4.421875 0-8-3.582031-8-8v-16c0-4.417969 3.578125-8 8-8 4.417969 0 8 3.582031 8 8v16c0 4.417969-3.582031 8-8 8zm0 0"/><path d="m198.714844 64.152344c-55.132813-2.648438-105.75 30.339844-125.589844 81.847656-19.835938 51.503906-4.425781 109.925781 38.238281 144.945312 5.640625 4.414063 8.996094 11.132813 9.136719 18.292969v18.761719c.039062 10.132812 6.445312 19.148438 16 22.527344v9.472656c.019531 5.921875 2.242188 11.625 6.238281 16-8.320312 9.042969-8.320312 22.957031 0 32-5.492187 5.992188-7.542969 14.375-5.433593 22.222656 2.105468 7.851563 8.078124 14.078125 15.832031 16.511719 3.230469 19.203125 19.851562 33.261719 39.320312 33.261719s36.09375-14.058594 39.320313-33.261719c7.769531-2.414063 13.761718-8.632813 15.886718-16.488281 2.121094-7.851563.082032-16.242188-5.40625-22.246094 8.320313-9.042969 8.320313-22.957031 0-32 3.996094-4.375 6.21875-10.078125 6.242188-16v-9.472656c9.554688-3.378906 15.957031-12.394532 16-22.527344v-17.832031c-.109375-7.1875 3.003906-14.046875 8.484375-18.695313 30.34375-24.398437 47.847656-61.339844 47.515625-100.273437-1.160156-67.664063-54.230469-123.027344-121.785156-127.046875zm33.785156 287.847656v8c0 4.417969-3.582031 8-8 8h-64c-4.421875 0-8-3.582031-8-8v-8zm0 40c0 4.417969-3.582031 8-8 8h-64c-4.421875 0-8-3.582031-8-8s3.578125-8 8-8h64c4.417969 0 8 3.582031 8 8zm-40 72c-10.167969-.011719-19.230469-6.417969-22.632812-16h45.261718c-3.402344 9.582031-12.460937 15.988281-22.628906 16zm32-32h-64c-4.421875 0-8-3.582031-8-8s3.578125-8 8-8h64c4.417969 0 8 3.582031 8 8s-3.582031 8-8 8zm38.4375-152.976562c-9.289062 7.652343-14.601562 19.109374-14.4375 31.144531v17.832031c0 4.417969-3.582031 8-8 8h-40v-152c0-4.417969-3.582031-8-8-8-4.421875 0-8 3.582031-8 8v152h-40c-4.421875 0-8-3.582031-8-8v-18.761719c-.132812-11.960937-5.640625-23.226562-15-30.679687-36.542969-30-50.308594-79.71875-34.398438-124.242188 15.90625-44.523437 58.0625-74.261718 105.339844-74.316406 1.832032 0 3.671875.039062 5.511719.136719 59.117187 3.515625 105.550781 51.972656 106.546875 111.183593.285156 34.050782-15.027344 66.363282-41.5625 87.703126zm0 0"/></g></svg>