<svg height="480pt" viewBox="-48 0 480 480.00367" width="480pt" xmlns="http://www.w3.org/2000/svg"><g fill="#9bc9ff"><path d="m171.808594 230.320312-27.839844 201.679688 48 40 48-40-27.839844-201.679688-20.160156 20.160157zm0 0"/><path d="m237.25 205.28125 16 16 122.71875-173.28125-32-40-152 152zm0 0"/><path d="m39.96875 8-32 40 122.722656 173.28125 16-16 45.277344-45.28125zm0 0"/><path d="m191.96875 160-45.277344 45.28125 25.117188 25.039062 20.160156 20.160157 20.160156-20.160157 25.121094-25.039062zm0 0"/></g><path d="m382.21875 43-32-40c-.640625-.757812-1.414062-1.390625-2.289062-1.863281-.246094-.132813-.5-.242188-.757813-.335938-.742187-.328125-1.527344-.539062-2.328125-.632812-.160156 0-.296875-.1132815-.449219-.1289065-.152343-.015625-.121093 0-.175781 0-.058594 0-.152344-.0390625-.25-.0390625h-304c-.09375 0-.175781 0-.261719 0-.089843 0-.121093 0-.183593 0-.066407 0-.289063.105469-.449219.128906-.796875.105469-1.574219.332032-2.304688.671875-.238281.09375-.472656.207031-.695312.335938-.871094.472656-1.648438 1.105469-2.289063 1.863281h-.039062l-32 40c-2.21875 2.78125-2.332032 6.695312-.28125 9.601562l122.714844 173.277344c1.359374 1.925782 3.503906 3.152344 5.855468 3.351563h.679688c2.121094 0 4.15625-.84375 5.65625-2.34375l10.34375-10.34375 16.65625 16.617187-27.320313 197.742188c-.382812 2.734375.675781 5.472656 2.792969 7.242187l48 40c2.96875 2.480469 7.285156 2.480469 10.253906 0l48-40c2.117188-1.769531 3.171875-4.507812 2.792969-7.242187l-27.296875-197.695313 16.65625-16.613281 10.34375 10.34375c1.5 1.5 3.535156 2.34375 5.65625 2.34375h.679688c2.351562-.199219 4.492187-1.425781 5.855468-3.351562l122.714844-173.304688c2.0625-2.914062 1.949219-6.839844-.28125-9.625zm-57.5625-27-132.6875 132.6875-132.6875-132.6875zm-192.917969 192.921875-113.761719-160.625 22.65625-28.296875 140.023438 140zm99.703125 219.773437-39.472656 32.90625-39.46875-32.890624 25.070312-181.335938 8.800782 8.800781c3.121094 3.125 8.1875 3.125 11.3125 0l8.796875-8.800781zm-39.472656-189.496093-33.957031-33.894531 33.957031-33.992188 33.960938 33.960938zm60.234375-30.246094-48.921875-48.953125 140-140 22.65625 28.320312zm0 0" fill="#1e81ce"/></svg>