<svg height="512" viewBox="0 0 64 64" width="512" xmlns="http://www.w3.org/2000/svg"><g id="Application-2" data-name="Application"><path d="m60 7h-56a2.006 2.006 0 0 0 -2 2v34a2.006 2.006 0 0 0 2 2h32.57l-.57-1v-2h-26a1 1 0 0 1 -1-1v-30a1 1 0 0 1 1-1h47a1 1 0 0 1 1 1v30a1 1 0 0 1 -1 1h-3v2l-.43 1h6.43a2.006 2.006 0 0 0 2-2v-34a2.006 2.006 0 0 0 -2-2z" fill="#57a4ff"/><circle cx="32" cy="29" fill="#57a4ff" r="2"/><g fill="#004fac"><path d="m60 6h-56a3 3 0 0 0 -3 3v34a3 3 0 0 0 3 3h31.991l3.009 5.266v5.734a1 1 0 0 0 1 1h11a1 1 0 0 0 1-1v-5.8l2.231-5.2h5.769a3 3 0 0 0 3-3v-34a3 3 0 0 0 -3-3zm-7 28h-1v-1a2 2 0 0 0 -2-2h-2a1 1 0 0 0 -1-1h-3v-3a2 2 0 0 0 -2-2h-2a2 2 0 0 0 -2 2v10h-1a2 2 0 0 0 -2 2v2h-25v-30h47v30h-2v-4c0-.635-.5-3-2-3zm-2.919 16.606a.989.989 0 0 0 -.081.394v5h-9v-5a.993.993 0 0 0 -.132-.5l-3.868-6.766v-4.734h2a1 1 0 0 0 1-1v-11h2v11a1 1 0 0 0 2 0v-6h2v6a1 1 0 0 0 2 0v-5h2v2a.977.977 0 0 0 .153.5.977.977 0 0 0 -.153.5v2a1 1 0 0 0 2 0v-2h.7a3.03 3.03 0 0 1 .3 1v6.8l-.346.808-.007.016zm10.919-7.606a1 1 0 0 1 -1 1h-5v-1h2a2 2 0 0 0 2-2v-30a2 2 0 0 0 -2-2h-47a2 2 0 0 0 -2 2v30a2 2 0 0 0 2 2h25v1h-31a1 1 0 0 1 -1-1v-34a1 1 0 0 1 1-1h56a1 1 0 0 1 1 1z"/><path d="m6 24a1 1 0 0 0 -1 1v2a1 1 0 0 0 2 0v-2a1 1 0 0 0 -1-1z"/><path d="m31.865 26a3 3 0 0 0 .135 6h.138a3 3 0 0 0 -.273-6zm.873 3.671a1 1 0 1 1 -.783-1.671h.045a1 1 0 0 1 .737 1.674z"/><path d="m32 23.169a3.969 3.969 0 0 0 -2.828 1.172 1 1 0 1 0 1.415 1.413 2.058 2.058 0 0 1 2.913.092 1 1 0 0 0 1.5-1.322 4 4 0 0 0 -3-1.355z"/><path d="m32 20.169a6.974 6.974 0 0 0 -4.785 1.892 1 1 0 1 0 1.368 1.459 5 5 0 0 1 6.689-.131 1 1 0 1 0 1.31-1.512 7 7 0 0 0 -4.582-1.708z"/><path d="m32 17.17a9.986 9.986 0 0 0 -6.667 2.547 1 1 0 0 0 1.334 1.491 8 8 0 0 1 10.667 0 1 1 0 1 0 1.334-1.489 9.978 9.978 0 0 0 -6.668-2.549z"/><path d="m51 12h-7a1 1 0 0 0 0 2h7a1 1 0 0 0 0-2z"/><path d="m56 13a1 1 0 0 0 -1-1h-1a1 1 0 0 0 0 2h1a1 1 0 0 0 1-1z"/><path d="m45 53h-2a1 1 0 0 0 0 2h2a1 1 0 0 0 0-2z"/></g></g></svg>