<svg height="480pt" viewBox="0 0 480 479" width="480pt" xmlns="http://www.w3.org/2000/svg"><g fill="#9bc9ff"><path d="m8 440.476562v32h464v-32zm0 0"/><path d="m424 183.367188v-.007813.007813l27.601562 19.03125 20.398438-33.921876-232-160-104 71.730469v.03125-.03125l-128 88.269531 20.398438 33.921876 27.601562-19.03125v-.007813.007813l184-126.890626zm0 0"/><path d="m136 40.476562h-48v72h1.199219l46.800781-32.269531zm0 0"/><path d="m296 168.476562h-112c-8.835938 0-16 7.164063-16 16v208c0 8.839844 7.164062 16 16 16h112c8.835938 0 16-7.160156 16-16v-208c0-8.835937-7.164062-16-16-16zm-8 104-80 104 16-104h-32l32-72h64l-32 72zm0 0"/><path d="m216 136.476562h48v32h-48zm0 0"/></g><path d="m472 432.476562h-40v-233.878906l15.0625 10.402344c1.816406 1.253906 4.070312 1.699219 6.226562 1.238281 2.164063-.464843 4.035157-1.804687 5.175782-3.703125l20.390625-33.921875c2.171875-3.621093 1.15625-8.308593-2.320313-10.703125l-232-160c-2.730468-1.878906-6.339844-1.878906-9.070312 0l-91.464844 63.054688v-24.488282c0-4.417968-3.582031-8-8-8h-48c-4.417969 0-8 3.582032-8 8v68.632813l-76.535156 52.800781c-3.4765628 2.394532-4.492188 7.082032-2.320313 10.703125l20.390625 33.921875c1.140625 1.898438 3.011719 3.238282 5.175782 3.703125 2.15625.472657 4.414062.023438 6.226562-1.238281l15.0625-10.402344v233.878906h-40c-4.417969 0-8 3.582032-8 8v32c0 4.421876 3.582031 8 8 8h464c4.417969 0 8-3.578124 8-8v-32c0-4.417968-3.582031-8-8-8zm-376-384h32v27.53125l-32 22.070313zm-65.136719 142.503907-12.136719-20.183594 221.273438-152.597656 221.273438 152.597656-12.136719 20.183594-204.601563-141.085938c-2.730468-1.878906-6.339844-1.878906-9.070312 0zm33.136719-3.414063 176-121.367187 176 121.367187v244.910156h-352zm400 276.910156h-448v-16h448zm0 0" fill="#1e81ce"/><path d="m294.710938 196.117188c-1.476563-2.269532-4-3.640626-6.710938-3.640626h-64c-3.164062 0-6.027344 1.863282-7.3125 4.753907l-32 72c-1.097656 2.472656-.871094 5.335937.605469 7.609375 1.476562 2.269531 4 3.640625 6.707031 3.636718h22.671875l-14.574219 94.785157c-.558594 3.609375 1.402344 7.136719 4.757813 8.574219 3.359375 1.4375 7.261719.417968 9.488281-2.476563l80-104c1.859375-2.417969 2.183594-5.679687.835938-8.414063-1.34375-2.738281-4.128907-4.46875-7.179688-4.46875h-19.6875l27-60.75c1.101562-2.472656.875-5.335937-.601562-7.609374zm-46.023438 73.113281c-1.097656 2.472656-.871094 5.335937.605469 7.609375 1.476562 2.269531 4 3.640625 6.707031 3.636718h15.753906l-51.113281 66.449219 11.261719-73.230469c.355468-2.308593-.3125-4.652343-1.832032-6.425781-1.519531-1.769531-3.738281-2.789062-6.070312-2.792969h-19.6875l24.878906-56h46.496094zm0 0" fill="#1e81ce"/><path d="m296 160.476562h-24v-24c0-4.417968-3.582031-8-8-8h-48c-4.417969 0-8 3.582032-8 8v24h-24c-13.253906 0-24 10.746094-24 24v208c0 13.257813 10.746094 24 24 24h112c13.253906 0 24-10.742187 24-24v-208c0-13.253906-10.746094-24-24-24zm-72-16h32v16h-32zm80 248c0 4.421876-3.582031 8-8 8h-112c-4.417969 0-8-3.578124-8-8v-208c0-4.417968 3.582031-8 8-8h112c4.417969 0 8 3.582032 8 8zm0 0" fill="#1e81ce"/></svg>