<svg height="512" viewBox="0 0 64 64" width="512" xmlns="http://www.w3.org/2000/svg"><g fill="#57a4ff"><path d="m60 20h-4.46a16.372 16.372 0 0 1 -1.36 3h2.82a1 1 0 0 1 1 1v30a1 1 0 0 1 -1 1h-47a1 1 0 0 1 -1-1v-30a1 1 0 0 1 1-1h23.82a16.372 16.372 0 0 1 -1.36-3h-28.46a2.006 2.006 0 0 0 -2 2v34a2.006 2.006 0 0 0 2 2h56a2.006 2.006 0 0 0 2-2v-34a2.006 2.006 0 0 0 -2-2z"/><path d="m50 24.357h-12v-10.286l6-5.142 6 5.142z"/><path d="m36.286 15.786 1.714-1.715"/><path d="m50 14.071 1.714 1.715"/><path d="m58 40v4h-22v11h-4v-11h-23v-4h13v-17h5v17z"/></g><path d="m60 19h-3.165a7.648 7.648 0 0 0 .165-1.5 13 13 0 0 0 -26 0 7.648 7.648 0 0 0 .165 1.5h-27.165a3 3 0 0 0 -3 3v34a3 3 0 0 0 3 3h56a3 3 0 0 0 3-3v-34a3 3 0 0 0 -3-3zm-50 35v-9h21v9zm22-11h-22v-2h12a1 1 0 0 0 1-1v-16h3v16a1 1 0 0 0 1 1h30v2h-21a1 1 0 0 0 -1 1v10h-2v-10a1 1 0 0 0 -1-1zm-22-4v-15h11v15zm27 6h20v9h-20zm20-6h-29v-15h5.248c3.452 5.917 9.7 11.882 10.064 12.226a1 1 0 0 0 1.376 0c.362-.344 6.612-6.309 10.064-12.226h2.248zm-13-32.5a11.013 11.013 0 0 1 11 11c0 4.753-7.387 13.037-11 16.607-3.613-3.569-11-11.85-11-16.607a11.013 11.013 0 0 1 11-11zm17 49.5a1 1 0 0 1 -1 1h-56a1 1 0 0 1 -1-1v-34a1 1 0 0 1 1-1h27.767c.129.33.276.664.431 1h-22.198a2 2 0 0 0 -2 2v30a2 2 0 0 0 2 2h47a2 2 0 0 0 2-2v-30a2 2 0 0 0 -2-2h-1.2c.155-.336.3-.67.431-1h3.769a1 1 0 0 1 1 1z" fill="#004fac"/><path d="m19 51h-7a1 1 0 0 0 0 2h7a1 1 0 0 0 0-2z" fill="#004fac"/><path d="m23 51h-1a1 1 0 0 0 0 2h1a1 1 0 0 0 0-2z" fill="#004fac"/><path d="m51 24.357v-7.871l.007.007a1 1 0 1 0 1.414-1.414l-7.771-6.91a1 1 0 0 0 -1.3 0l-7.771 6.91a1 1 0 1 0 1.414 1.414l.007-.007v7.871a1 1 0 0 0 1 1h12a1 1 0 0 0 1-1zm-2-1h-10v-8.826l5-4.285 5 4.285z" fill="#004fac"/><path d="m6 36a1 1 0 0 0 -1 1v4a1 1 0 0 0 2 0v-4a1 1 0 0 0 -1-1z" fill="#004fac"/></svg>