<svg height="512" viewBox="0 0 64 64" width="512" xmlns="http://www.w3.org/2000/svg"><path d="m2 13v12h60v-12zm7 9a3 3 0 1 1 3-3 3 3 0 0 1 -3 3zm10 0a3 3 0 1 1 3-3 3 3 0 0 1 -3 3z" fill="#57a4ff"/><path d="m6 45v6h52v-6z" fill="#57a4ff"/><path d="m4 59h56v3h-56z" fill="#57a4ff"/><path d="m6 45h52v6h-52z" fill="#57a4ff"/><g fill="#004fac"><path d="m29.172 9.341a1 1 0 1 0 1.414 1.414 2.057 2.057 0 0 1 2.914.092 1 1 0 1 0 1.5-1.325 4 4 0 0 0 -5.828-.181z"/><path d="m36.683 8.289a1 1 0 0 0 -.1-1.411 7 7 0 0 0 -9.367.183 1 1 0 0 0 1.366 1.459 5 5 0 0 1 6.689-.13 1 1 0 0 0 1.412-.101z"/><path d="m26.667 6.208a8 8 0 0 1 10.667 0 1 1 0 1 0 1.334-1.49 10 10 0 0 0 -13.335 0 1 1 0 1 0 1.334 1.49z"/><path d="m62 12h-60a1 1 0 0 0 -1 1v46a1 1 0 0 0 1 1h1v2a1 1 0 0 0 1 1h56a1 1 0 0 0 1-1v-2h1a1 1 0 0 0 1-1v-46a1 1 0 0 0 -1-1zm-59 2h58v10h-58zm56 47h-54v-1h54zm2-3h-58v-32h58z"/><path d="m6 52h52a1 1 0 0 0 1-1v-21a1 1 0 0 0 -1-1h-52a1 1 0 0 0 -1 1v21a1 1 0 0 0 1 1zm51-2h-50v-4h50zm-50-19h50v13h-50z"/><path d="m9 15a4 4 0 1 0 4 4 4 4 0 0 0 -4-4zm0 6a2 2 0 1 1 2-2 2 2 0 0 1 -2 2z"/><path d="m19 15a4 4 0 1 0 4 4 4 4 0 0 0 -4-4zm0 6a2 2 0 1 1 2-2 2 2 0 0 1 -2 2z"/><path d="m58 15h-12a1 1 0 0 0 0 2h12a1 1 0 0 0 0-2z"/><path d="m58 18h-4a1 1 0 0 0 0 2h4a1 1 0 0 0 0-2z"/><path d="m58 21h-1a1 1 0 0 0 0 2h1a1 1 0 0 0 0-2z"/><path d="m43 15h-1a1 1 0 0 0 0 2h1a1 1 0 0 0 0-2z"/><path d="m6 56h5a1 1 0 0 0 0-2h-5a1 1 0 0 0 0 2z"/><path d="m15 54h-1a1 1 0 0 0 0 2h1a1 1 0 0 0 0-2z"/></g></svg>