<?xml version="1.0" encoding="iso-8859-1"?>
<!-- Generator: Adobe Illustrator 19.0.0, SVG Export Plug-In . SVG Version: 6.00 Build 0)  -->
<svg version="1.1" id="Capa_1" xmlns="http://www.w3.org/2000/svg" xmlns:xlink="http://www.w3.org/1999/xlink" x="0px" y="0px"
	 viewBox="0 0 512.001 512.001" style="enable-background:new 0 0 512.001 512.001;" xml:space="preserve">
<g>
	<g>
		<path d="M508.334,237.279L263.001,23.946c-4.021-3.479-9.979-3.479-14,0L3.667,237.279c-3.354,2.927-4.552,7.625-2.99,11.792
			s5.542,6.927,9.99,6.927h53.333v224c0,5.896,4.771,10.667,10.667,10.667h362.667c5.896,0,10.667-4.771,10.667-10.667v-224h53.333
			c4.448,0,8.427-2.76,9.99-6.927S511.688,240.206,508.334,237.279z M256.001,405.331c-11.76,0-21.333-9.573-21.333-21.333
			c0-11.76,9.573-21.333,21.333-21.333s21.333,9.573,21.333,21.333C277.334,395.758,267.761,405.331,256.001,405.331z
			 M305.063,360.488c-4.729,3.552-11.385,2.615-14.938-2.104c-16.344-21.698-51.99-21.677-68.26,0.021
			c-2.094,2.792-5.302,4.26-8.542,4.26c-2.229,0-4.479-0.698-6.396-2.135c-4.708-3.542-5.656-10.229-2.125-14.938
			c12.219-16.26,30.875-25.594,51.198-25.594c20.292,0,38.938,9.313,51.167,25.552C310.709,350.258,309.771,356.946,305.063,360.488
			z M335.938,329.779c-2.01,1.708-4.469,2.552-6.927,2.552c-3.01,0-6-1.271-8.115-3.74c-16.25-19.021-39.906-29.927-64.896-29.927
			s-48.635,10.906-64.896,29.917c-3.823,4.479-10.563,5.01-15.031,1.177c-4.479-3.823-5.01-10.552-1.177-15.031
			c20.313-23.771,49.875-37.396,81.104-37.396c31.24,0,60.813,13.635,81.125,37.406
			C340.949,319.217,340.417,325.946,335.938,329.779z M366.324,299.321c-4.375,3.927-11.135,3.563-15.063-0.813
			c-24.26-27.01-58.979-42.51-95.26-42.51c-36.302,0-71.042,15.51-95.302,42.552c-2.104,2.344-5.021,3.542-7.938,3.542
			c-2.542,0-5.083-0.896-7.125-2.729c-4.385-3.938-4.75-10.677-0.813-15.063c28.302-31.542,68.823-49.635,111.177-49.635
			c42.323,0,82.833,18.073,111.135,49.594C371.074,288.644,370.709,295.383,366.324,299.321z"/>
	</g>
</g>
<g>
</g>
<g>
</g>
<g>
</g>
<g>
</g>
<g>
</g>
<g>
</g>
<g>
</g>
<g>
</g>
<g>
</g>
<g>
</g>
<g>
</g>
<g>
</g>
<g>
</g>
<g>
</g>
<g>
</g>
</svg>
